# xmcd
#
# Track frame offsets:
#	182
#	13840
#	29620
#	42677
#	64605
#	80177
#	91777
#	107555
#	120092
#	133705
#
# Disc length: 2012
#
# Revision: 1
# Processed by: cddbd v1.5.1PL0 Copyright (c) Steve Scherf et al.
# Submitted via: VisiTrax 2.9.3.171 - For more info visit www.synapsa.com
# Normalized: r0:DSETVAR1
#
DISCID=8007da0a
DTITLE=Various Artist - Floor Fillin' Two Steppin Honky Tonk Hits Volume 1
DYEAR=1900
DGENRE=
TTITLE0=Pirates Of The Mississippi - Honky tonk Blues
TTITLE1=Tanya Tucker - Down to my Last Teardrop
TTITLE2=Charlie Floyd - I've Fallen in Love (and I Can't Get Up)
TTITLE3=Charlie Daniels - Tennessee Two-Step
TTITLE4=Richy Lynn Gregg - Bring on the Neon
TTITLE5=Chris LeDoux - Watcha Gonna Do With A Cownboy
TTITLE6=Billy Dean - Hammer Down
TTITLE7=John Anderson - Tryin' To Make A Living On The Road
TTITLE8=Highway 101 - Home On The Range
TTITLE9=Dan Seals - Love on Arrival
EXTD=
EXTT0=
EXTT1=
EXTT2=
EXTT3=
EXTT4=
EXTT5=
EXTT6=
EXTT7=
EXTT8=
EXTT9=
PLAYORDER=
